Coordinates
version=1
nRows=16
nColumns=28
inDegrees=yes

Units are S.I. units (second, meters, Newtons, ...)
Angles are in degrees.

endheader
time	pelvis_tilt	pelvis_list	pelvis_rotation	pelvis_tx	pelvis_ty	pelvis_tz	hip_flexion_r	hip_adduction_r	hip_rotation_r	knee_angle_r	ankle_angle_r	subtalar_angle_r	mtp_angle_r	hip_flexion_l	hip_adduction_l	hip_rotation_l	knee_angle_l	socket_flexion	socket_adduction	socket_rotation	socket_tx	socket_ty	socket_tz	foot_flex	lumbar_extension	lumbar_bending	lumbar_rotation
      0.00000000	     -1.80480555	     -6.21508541	     -7.67276799	     -0.87843535	      0.98951786	      0.26658889	    -22.92665431	      8.42080564	      1.53023668	     -3.87861673	     11.84976860	     -4.61182466	      9.57818449	     29.95884348	    -10.21115431	     10.47381327	     -4.66333439	      0.00000000	      0.00000000	      0.00000000	      0.00000000	      0.00024452	      0.00000000	     -0.65239334	     -9.99998162	      5.59785683	      9.32329911
      0.00416667	     -1.86986815	     -6.25422353	     -7.60141002	     -0.87285858	      0.98883773	      0.26617846	    -23.05224778	      8.43004831	      1.58367629	     -4.08842169	     11.79940779	     -4.61354059	      9.57323859	     29.81527270	    -10.13039719	     10.47507039	     -4.68046663	      0.00000000	      0.00000000	      0.00000000	      0.00000000	     -0.00006200	      0.00000000	     -0.72901258	     -9.84855286	      5.64200569	      9.32595329
      0.00833333	     -1.92882793	     -6.33330572	     -7.64388363	     -0.86715300	      0.98826804	      0.26592293	    -23.02760755	      8.43613984	      1.51576441	     -4.62651813	     11.56023662	     -4.69241787	      9.53873816	     29.52788147	    -10.17020400	     10.53004112	     -4.45570654	      0.00000000	      0.00000000	      0.00000000	      0.00000000	     -0.00053143	      0.00000000	     -1.20613257	     -9.75592639	      5.73350786	      9.30535701
      0.01250000	     -1.97900178	     -6.43707374	     -7.67941883	     -0.86135058	      0.98765859	      0.26557532	    -23.00784014	      8.45620295	      1.46494794	     -5.18805528	     11.36723721	     -4.73322743	      9.53996480	     29.29634145	    -10.20522074	     10.50910512	     -4.39392113	      0.00000000	      0.00000000	      0.00000000	      0.00000000	     -0.00101713	      0.00000000	     -1.49652026	     -9.68260071	      5.85788382	      9.32092993
      0.01666667	     -2.05108021	     -6.51209529	     -7.69150711	     -0.85527597	      0.98703432	      0.26523006	    -23.00599045	      8.46509196	      1.47214220	     -5.68815569	     11.22137883	     -4.74487979	      9.55035915	     29.06329279	    -10.20788178	     10.57046652	     -4.30824296	      0.00000000	      0.00000000	      0.00000000	      0.00000000	     -0.00150819	      0.00000000	     -1.76904012	     -9.55328142	      5.93755671	      9.33746961
      0.02083333	     -2.12714603	     -6.59995623	     -7.70708947	     -0.84909744	      0.98639290	      0.26485313	    -22.96872994	      8.47967290	      1.44699337	     -6.25533501	     11.04477841	     -4.75664288	      9.56482637	     28.82997669	    -10.21981850	     10.61389746	     -4.23253405	      0.00000000	      0.00000000	      0.00000000	      0.00000000	     -0.00208390	      0.00000000	     -2.07930849	     -9.42874842	      6.04171342	      9.36030787
      0.02500000	     -2.21192482	     -6.67511742	     -7.71973349	     -0.84277053	      0.98575221	      0.26448591	    -22.92373324	      8.48294779	      1.43237940	     -6.82408069	     10.85930611	     -4.76040719	      9.58186188	     28.60089830	    -10.22037309	     10.68951831	     -4.17070752	      0.00000000	      0.00000000	      0.00000000	      0.00000000	     -0.00268755	      0.00000000	     -2.36367194	     -9.28697009	      6.12831249	      9.38146458
      0.02916667	     -2.30161760	     -6.75555130	     -7.73196660	     -0.83639414	      0.98514336	      0.26408287	    -22.84270566	      8.49179275	      1.40348413	     -7.44890338	     10.64649806	     -4.76624595	      9.60591582	     28.37549312	    -10.22112912	     10.76230365	     -4.12515356	      0.00000000	      0.00000000	      0.00000000	      0.00000000	     -0.00334514	      0.00000000	     -2.65994617	     -9.13945924	      6.22552858	      9.40490950
      0.03333333	     -2.39297550	     -6.82204853	     -7.74157634	     -0.82992143	      0.98455569	      0.26371845	    -22.74864741	      8.49019665	      1.37662116	     -8.09090641	     10.42022072	     -4.77300682	      9.63473629	     28.14853596	    -10.21274786	     10.86016632	     -4.09690017	      0.00000000	      0.00000000	      0.00000000	      0.00000000	     -0.00404124	      0.00000000	     -2.94504635	     -8.98063934	      6.30535011	      9.42268243
      0.03750000	     -2.49058412	     -6.88189739	     -7.73779653	     -0.82338421	      0.98400100	      0.26328295	    -22.63170385	      8.47938964	      1.35389916	     -8.75821450	     10.16544874	     -4.78708238	      9.66331123	     27.92716212	    -10.19029334	     10.96686938	     -4.06992840	      0.00000000	      0.00000000	      0.00000000	      0.00000000	     -0.00473957	      0.00000000	     -3.22252246	     -8.81002174	      6.37705140	      9.43326027
      0.04166667	     -3.03271289	     -6.94233401	     -7.82587557	     -0.81673744	      0.98281860	      0.26282388	    -21.85827781	      8.48245949	      1.05421323	     -9.80030432	      9.95963630	     -4.43099421	     10.49471687	     28.21713654	    -10.22055195	     11.06308188	     -4.16057009	      0.00000000	      0.00000000	      0.00000000	      0.00000000	     -0.00551057	      0.00000000	     -3.46209157	     -8.11192553	      6.53571983	      9.60566807
      0.04583333	     -3.06634674	     -6.95410978	     -7.77791074	     -0.81009924	      0.98244037	      0.26238614	    -21.81671315	      8.43932234	      1.08592308	    -10.41421585	      9.64975536	     -4.47707502	     10.50172501	     27.92480553	    -10.13209096	     11.22922770	     -4.15114056	      0.00000000	      0.00000000	      0.00000000	      0.00000000	     -0.00625509	      0.00000000	     -3.72809955	     -7.99446788	      6.53161844	      9.54175190
      0.05000000	     -3.11249750	     -6.96566452	     -7.74186985	     -0.80348957	      0.98212170	      0.26189586	    -21.67763158	      8.38234482	      0.99677580	    -11.17706023	      9.22736773	     -4.59219258	     10.52240087	     27.65270554	    -10.04364389	     11.29345209	     -4.16578981	      0.00000000	      0.00000000	      0.00000000	      0.00000000	     -0.00700412	      0.00000000	     -4.00334938	     -7.88053340	      6.55946625	      9.46931710
      0.05416667	     -3.16306769	     -6.93782556	     -7.70721354	     -0.79683336	      0.98183212	      0.26149010	    -21.56198006	      8.29816942	      1.03601722	    -11.87271763	      8.87165150	     -4.66445146	     10.53148414	     27.38525352	     -9.93235370	     11.46673623	     -4.20023131	      0.00000000	      0.00000000	      0.00000000	      0.00000000	     -0.00773274	      0.00000000	     -4.21473699	     -7.73326340	      6.50325855	      9.40955720
      0.05833333	     -3.57719712	     -6.81116684	     -7.66493374	     -0.78990129	      0.98108434	      0.26098316	    -20.90509844	      8.14226364	      0.66504466	    -12.82636900	      8.16088867	     -4.84617595	     11.71119040	     27.53460598	     -9.72596443	     11.51084417	     -4.30484113	      0.00000000	      0.00000000	      0.00000000	      0.00000000	     -0.00835864	      0.00000000	     -4.42253231	     -7.10204997	      6.44846902	      9.25130777
      0.06250000	     -3.56248668	     -6.78297415	     -7.60971920	     -0.78338754	      0.98104494	      0.26045585	    -20.75095682	      8.05042225	      0.63632203	    -13.67613866	      7.65804348	     -4.95918037	     11.75578442	     27.22921869	     -9.58933095	     11.57504501	     -4.39364255	      0.00000000	      0.00000000	      0.00000000	      0.00000000	     -0.00904147	      0.00000000	     -4.64523196	     -7.04997133	      6.40568990	      9.18270263
